<svg width="20" height="20" viewBox="0 0 20 20" fill="none" xmlns="http://www.w3.org/2000/svg">
<path d="M5.80039 9.40002C5.64126 9.40002 5.48865 9.46324 5.37613 9.57576C5.26361 9.68828 5.20039 9.84089 5.20039 10C5.20039 10.1592 5.26361 10.3118 5.37613 10.4243C5.48865 10.5368 5.64126 10.6 5.80039 10.6H9.40039V14.2C9.40039 14.3592 9.4636 14.5118 9.57613 14.6243C9.68865 14.7368 9.84126 14.8 10.0004 14.8C10.1595 14.8 10.3121 14.7368 10.4247 14.6243C10.5372 14.5118 10.6004 14.3592 10.6004 14.2V10.6H14.2004C14.3595 10.6 14.5121 10.5368 14.6247 10.4243C14.7372 10.3118 14.8004 10.1592 14.8004 10C14.8004 9.84089 14.7372 9.68828 14.6247 9.57576C14.5121 9.46324 14.3595 9.40002 14.2004 9.40002H10.6004V5.80002C10.6004 5.64089 10.5372 5.48828 10.4247 5.37576C10.3121 5.26324 10.1595 5.20002 10.0004 5.20002C9.84126 5.20002 9.68865 5.26324 9.57613 5.37576C9.4636 5.48828 9.40039 5.64089 9.40039 5.80002V9.40002H5.80039ZM19.6004 10C19.6004 7.45395 18.589 5.01215 16.7886 3.2118C14.9883 1.41145 12.5465 0.400024 10.0004 0.400024C7.45431 0.400024 5.01252 1.41145 3.21217 3.2118C1.41182 5.01215 0.400391 7.45395 0.400391 10L0.408791 10.4152L0.439991 10.8736C0.549882 12.0809 0.887431 13.2564 1.43479 14.338L1.51039 14.482L0.418391 18.8548L0.401591 18.9544V19.0528C0.409212 19.1393 0.435504 19.2231 0.47865 19.2984C0.521796 19.3737 0.580769 19.4388 0.651501 19.4891C0.722232 19.5394 0.803037 19.5737 0.88834 19.5898C0.973643 19.6058 1.06141 19.6032 1.14559 19.582L5.51959 18.49L5.66359 18.5668C7.12733 19.308 8.75661 19.6617 10.3959 19.5941C12.0352 19.5265 13.6299 19.0399 15.0276 18.1807C16.4254 17.3215 17.5796 16.1184 18.3801 14.6863C19.1806 13.2541 19.6008 11.6407 19.6004 10ZM1.60039 10C1.60092 8.15555 2.20853 6.36253 3.32943 4.89771C4.45032 3.4329 6.02219 2.37774 7.8024 1.89511C9.58261 1.41247 11.4722 1.52919 13.1795 2.22726C14.8867 2.92532 16.3168 4.16591 17.2489 5.75753C18.181 7.34916 18.5633 9.20333 18.3368 11.0339C18.1104 12.8644 17.2877 14.5695 15.9958 15.8859C14.7039 17.2024 13.0146 18.057 11.1887 18.318C9.36274 18.5789 7.5017 18.2316 5.89279 17.3296L5.78839 17.2828L5.67919 17.2576C5.60391 17.2473 5.52735 17.2514 5.45359 17.2696L1.82479 18.1744L2.73199 14.5504L2.74879 14.4364C2.7551 14.3227 2.72887 14.2094 2.67319 14.11C1.96787 12.8552 1.59836 11.4395 1.60039 10Z" fill="black"/>
</svg>
