<svg width="26" height="26" viewBox="0 0 26 26" fill="none" xmlns="http://www.w3.org/2000/svg">
<path d="M13.1451 8.42382C12.602 8.42129 12.0628 8.51572 11.5529 8.70267L17.4222 14.644C17.6177 14.1301 17.7188 13.5851 17.7205 13.0352C17.7226 11.8178 17.2424 10.6491 16.3849 9.78484C15.5274 8.92061 14.3625 8.43124 13.1451 8.42382Z" fill="white"/>
<path d="M23.8024 12.7569C21.5664 8.56246 17.616 6.00838 13.2273 5.98159C12.0323 5.97688 10.8442 6.16217 9.70746 6.53052L10.7812 7.62423C11.5783 7.42356 12.3971 7.32261 13.2191 7.3237C16.9971 7.34676 20.42 9.47484 22.4451 13.0372C21.6856 14.3492 20.6833 15.5045 19.4917 16.4417L20.4388 17.4004C21.8189 16.3015 22.9677 14.94 23.8186 13.3946L23.9951 13.0735L23.8024 12.7569Z" fill="white"/>
<path d="M4.1072 4.75155L7.08184 7.76272C5.18226 8.96874 3.62575 10.6442 2.56263 12.6273L2.38623 12.9416L2.55873 13.2648C4.79467 17.4593 8.74515 20.0133 13.1338 20.0401C14.8469 20.0509 16.5401 19.6735 18.0864 18.9362L21.4212 22.312L22.6017 21.3126L5.26081 3.75868L4.1072 4.75155ZM9.64295 10.3553C9.00973 11.2368 8.70888 12.314 8.79367 13.3961C8.87846 14.4782 9.34342 15.4954 10.1062 16.2676C10.869 17.0397 11.8804 17.5171 12.9614 17.6151C14.0424 17.7131 15.1232 17.4254 16.0124 16.803L17.0795 17.8832C15.8334 18.4071 14.494 18.6729 13.1422 18.6645C9.36421 18.6414 5.94127 16.5133 3.91623 12.951C4.90931 11.2179 6.33274 9.77041 8.04888 8.74839L9.64295 10.3553Z" fill="white"/>
</svg>
