<svg width="25" height="25" viewBox="0 0 25 25" fill="none" xmlns="http://www.w3.org/2000/svg">
<path d="M12.4293 7.57091C11.8862 7.56837 11.347 7.6628 10.8371 7.84976L16.7063 13.7911C16.9019 13.2772 17.003 12.7322 17.0047 12.1823C17.0068 10.9649 16.5266 9.79615 15.6691 8.93192C14.8116 8.0677 13.6467 7.57833 12.4293 7.57091Z" fill="black"/>
<path d="M23.0866 11.904C20.8506 7.70956 16.9001 5.15548 12.5114 5.12869C11.3165 5.12397 10.1284 5.30926 8.99164 5.67762L10.0654 6.77132C10.8624 6.57066 11.6813 6.46971 12.5032 6.47079C16.2813 6.49386 19.7042 8.62194 21.7293 12.1843C20.9697 13.4963 19.9674 14.6516 18.7759 15.5888L19.7229 16.5475C21.1031 15.4486 22.2518 14.0871 23.1028 12.5416L23.2792 12.2206L23.0866 11.904Z" fill="black"/>
<path d="M3.39138 3.89863L6.36601 6.9098C4.46644 8.11583 2.90993 9.79129 1.8468 11.7744L1.67041 12.0887L1.84291 12.4119C4.07885 16.6064 8.02933 19.1604 12.418 19.1872C14.1311 19.198 15.8243 18.8206 17.3706 18.0833L20.7054 21.4591L21.8859 20.4597L4.54499 2.90577L3.39138 3.89863ZM8.92713 9.50238C8.29391 10.3839 7.99306 11.4611 8.07785 12.5432C8.16264 13.6253 8.6276 14.6425 9.3904 15.4147C10.1532 16.1868 11.1646 16.6642 12.2456 16.7622C13.3266 16.8601 14.4074 16.5725 15.2966 15.9501L16.3637 17.0303C15.1176 17.5542 13.7782 17.82 12.4264 17.8116C8.64839 17.7885 5.22545 15.6604 3.20041 12.0981C4.19349 10.365 5.61692 8.9175 7.33306 7.89548L8.92713 9.50238Z" fill="black"/>
</svg>
