<svg width="17" height="17" viewBox="0 0 17 17" fill="none" xmlns="http://www.w3.org/2000/svg">
<path d="M15.9212 6.03034C15.9212 6.03764 15.9212 6.04428 15.9165 6.05159L14.4105 12.9492C14.3641 13.1921 14.2345 13.4112 14.0439 13.5688C13.8534 13.7264 13.6138 13.8125 13.3665 13.8125H3.63338C3.38623 13.8124 3.14684 13.7261 2.95642 13.5686C2.76601 13.411 2.63648 13.192 2.59014 12.9492L1.08405 6.05159C1.08405 6.04428 1.08073 6.03764 1.0794 6.03034C1.03818 5.80197 1.07286 5.56638 1.17814 5.35958C1.28342 5.15277 1.45351 4.98612 1.66243 4.88509C1.87134 4.78406 2.10758 4.7542 2.33506 4.80008C2.56255 4.84596 2.76875 4.96506 2.92217 5.13917L5.15807 7.54905L7.53541 2.21729C7.53552 2.21508 7.53552 2.21286 7.53541 2.21065C7.62042 2.02627 7.75648 1.87011 7.92748 1.76065C8.09848 1.65119 8.29726 1.59302 8.5003 1.59302C8.70333 1.59302 8.90211 1.65119 9.07311 1.76065C9.24411 1.87011 9.38017 2.02627 9.46518 2.21065C9.46507 2.21286 9.46507 2.21508 9.46518 2.21729L11.8425 7.54905L14.0784 5.13917C14.2322 4.96635 14.4381 4.84842 14.665 4.80329C14.8918 4.75816 15.1272 4.78829 15.3354 4.88911C15.5436 4.98993 15.7131 5.15593 15.8184 5.3619C15.9236 5.56787 15.9588 5.80256 15.9185 6.03034H15.9212Z" fill="#A7A7A7"/>
</svg>
