<svg width="23" height="23" viewBox="0 0 23 23" fill="none" xmlns="http://www.w3.org/2000/svg">
<path d="M13.6374 19.1666V17.0487L18.7492 11.9628C18.8437 11.8798 18.9411 11.8191 19.0414 11.7807C19.1418 11.7424 19.2424 11.7226 19.3433 11.7213C19.4532 11.7213 19.5612 11.7418 19.6672 11.7827C19.7733 11.8242 19.8695 11.8862 19.9557 11.9686L20.8422 12.8732C20.9207 12.9678 20.9808 13.0662 21.0223 13.1684C21.0632 13.27 21.0837 13.3719 21.0837 13.4741C21.0837 13.5763 21.067 13.6792 21.0338 13.7827C21.0006 13.8862 20.9367 13.9852 20.8422 14.0798L15.7553 19.1666H13.6374ZM4.79199 17.8403V16.2619C4.79199 15.8664 4.90699 15.4965 5.13699 15.1522C5.36763 14.8072 5.67749 14.5395 6.06658 14.3491C6.97124 13.9153 7.87655 13.5901 8.78249 13.3735C9.6878 13.1563 10.5937 13.0477 11.5003 13.0477C11.9316 13.0477 12.3641 13.0745 12.7979 13.1282C13.2317 13.1818 13.6684 13.2578 14.108 13.3562L11.3527 16.0923V17.8403H4.79199ZM19.3491 14.3903L20.2355 13.4741L19.35 12.5694L18.4396 13.4799L19.3491 14.3903ZM11.5003 10.9106C10.71 10.9106 10.0331 10.6288 9.46962 10.0653C8.90612 9.50182 8.62469 8.82523 8.62533 8.03557C8.62596 7.2459 8.90739 6.56868 9.46962 6.0039C10.0318 5.43912 10.7087 5.15833 11.5003 5.16153C12.2919 5.16472 12.9688 5.44583 13.531 6.00486C14.0933 6.56389 14.3747 7.24111 14.3753 8.03653C14.376 8.83194 14.0945 9.50853 13.531 10.0663C12.9675 10.624 12.2906 10.9048 11.5003 10.9106Z" fill="#A7A7A7"/>
</svg>
