<svg width="18" height="18" viewBox="0 0 18 18" fill="none" xmlns="http://www.w3.org/2000/svg">
<path d="M11.8125 13.2188V9.5625H6.71484C6.56566 9.5625 6.42259 9.50324 6.3171 9.39775C6.21161 9.29226 6.15234 9.14918 6.15234 9C6.15234 8.85082 6.21161 8.70774 6.3171 8.60225C6.42259 8.49676 6.56566 8.4375 6.71484 8.4375H11.8125V4.78125C11.8119 4.25928 11.6043 3.75884 11.2353 3.38975C10.8662 3.02066 10.3657 2.81306 9.84375 2.8125H3.09375C2.57178 2.81306 2.07134 3.02066 1.70225 3.38975C1.33316 3.75884 1.12556 4.25928 1.125 4.78125V13.2188C1.12556 13.7407 1.33316 14.2412 1.70225 14.6103C2.07134 14.9793 2.57178 15.1869 3.09375 15.1875H9.84375C10.3657 15.1869 10.8662 14.9793 11.2353 14.6103C11.6043 14.2412 11.8119 13.7407 11.8125 13.2188ZM14.9544 9.5625L13.1024 11.4149C13.0013 11.5212 12.9459 11.6628 12.9477 11.8095C12.9496 11.9562 13.0087 12.0963 13.1124 12.2001C13.2162 12.3038 13.3563 12.3629 13.503 12.3648C13.6497 12.3666 13.7913 12.3112 13.8976 12.2101L16.7101 9.39762C16.8155 9.29214 16.8747 9.14912 16.8747 9C16.8747 8.85088 16.8155 8.70786 16.7101 8.60238L13.8976 5.78988C13.7913 5.68885 13.6497 5.63335 13.503 5.63523C13.3563 5.63711 13.2162 5.69621 13.1124 5.79994C13.0087 5.90366 12.9496 6.0438 12.9477 6.19048C12.9459 6.33716 13.0013 6.47877 13.1024 6.58512L14.9544 8.4375H11.8125V9.5625H14.9544Z" fill="#A7A7A7"/>
</svg>
