<svg width="17" height="17" viewBox="0 0 17 17" fill="none" xmlns="http://www.w3.org/2000/svg">
<path fill-rule="evenodd" clip-rule="evenodd" d="M8.5 2.125C7.09104 2.125 5.73978 2.68471 4.7435 3.681C3.74721 4.67728 3.1875 6.02854 3.1875 7.4375V8.01231C2.44459 8.13789 1.77018 8.52256 1.28393 9.0981C0.797672 9.67363 0.531009 10.4028 0.53125 11.1562V12.2188C0.53125 12.9232 0.811104 13.5989 1.30925 14.097C1.5559 14.3437 1.84873 14.5393 2.171 14.6728C2.49327 14.8063 2.83868 14.875 3.1875 14.875H13.8125C14.517 14.875 15.1926 14.5951 15.6908 14.097C16.1889 13.5989 16.4688 12.9232 16.4688 12.2188V11.1562C16.469 10.4028 16.2023 9.67363 15.7161 9.0981C15.2298 8.52256 14.5554 8.13789 13.8125 8.01231V7.4375C13.8125 6.02854 13.2528 4.67728 12.2565 3.681C11.2602 2.68471 9.90896 2.125 8.5 2.125ZM5.84375 7.96875H7.96875V11.6875H9.03125V7.96875H11.1562V6.90625H5.84375V7.96875Z" fill="#A7A7A7"/>
</svg>
