<svg width="25" height="25" viewBox="0 0 25 25" fill="none" xmlns="http://www.w3.org/2000/svg">
<path d="M23.3471 12.1736C21.0068 7.84722 16.9027 5.22916 12.361 5.22916C7.81934 5.22916 3.70822 7.84722 1.38878 12.1736L1.19434 12.5L1.37489 12.8333C3.71517 17.1597 7.81934 19.7778 12.361 19.7778C16.9027 19.7778 21.0138 17.1944 23.3471 12.8333L23.5277 12.5L23.3471 12.1736ZM12.361 18.3542C8.45128 18.3542 4.861 16.1736 2.77767 12.5C4.861 8.82639 8.45128 6.64583 12.361 6.64583C16.2707 6.64583 19.8193 8.83333 21.9374 12.5C19.8193 16.1736 16.2638 18.3542 12.361 18.3542Z" fill="black"/>
<path d="M12.5627 17.2847C15.1937 17.2847 17.3266 15.1519 17.3266 12.5208C17.3266 9.88981 15.1937 7.75694 12.5627 7.75694C9.93169 7.75694 7.79883 9.88981 7.79883 12.5208C7.79883 15.1519 9.93169 17.2847 12.5627 17.2847Z" fill="black"/>
</svg>
