<svg width="17" height="17" viewBox="0 0 17 17" fill="none" xmlns="http://www.w3.org/2000/svg">
<path fill-rule="evenodd" clip-rule="evenodd" d="M7.42881 1.59132C5.88077 1.59132 4.39612 2.20631 3.30148 3.30098C2.20685 4.39566 1.59189 5.88036 1.59189 7.42846C1.59189 8.97657 2.20685 10.4613 3.30148 11.5559C4.39612 12.6506 5.88077 13.2656 7.42881 13.2656C8.97686 13.2656 10.4615 12.6506 11.5561 11.5559C12.6508 10.4613 13.2657 8.97657 13.2657 7.42846C13.2657 5.88036 12.6508 4.39566 11.5561 3.30098C10.4615 2.20631 8.97686 1.59132 7.42881 1.59132ZM1.71494e-08 7.42846C0.000100222 6.24052 0.285067 5.06992 0.830997 4.01486C1.37693 2.9598 2.1679 2.05105 3.13756 1.36484C4.10723 0.678622 5.22731 0.234955 6.40385 0.0710519C7.58039 -0.0928508 8.77907 0.0277905 9.89936 0.422856C11.0196 0.817922 12.0289 1.47589 12.8423 2.34157C13.6558 3.20725 14.2499 4.25539 14.5746 5.39808C14.8994 6.54077 14.9454 7.74468 14.7088 8.90882C14.4722 10.073 13.9599 11.1634 13.2148 12.0886L16.7467 15.6217C16.8249 15.6946 16.8876 15.7824 16.9311 15.8801C16.9746 15.9777 16.998 16.0831 16.9999 16.19C17.0018 16.2969 16.9821 16.403 16.9421 16.5021C16.902 16.6012 16.8425 16.6913 16.7669 16.7669C16.6913 16.8425 16.6013 16.902 16.5022 16.9421C16.403 16.9821 16.2969 17.0018 16.19 16.9999C16.0831 16.998 15.9777 16.9746 15.8801 16.9311C15.7825 16.8876 15.6946 16.8249 15.6217 16.7467L12.0888 13.2147C10.9973 14.0938 9.67947 14.6463 8.28738 14.8083C6.89529 14.9703 5.48578 14.7351 4.22163 14.1301C2.95749 13.525 1.89028 12.5746 1.14327 11.3888C0.396252 10.203 -9.51929e-05 8.82999 1.71494e-08 7.42846Z" fill="black"/>
</svg>
