<svg width="17" height="17" viewBox="0 0 17 17" fill="none" xmlns="http://www.w3.org/2000/svg">
<path d="M2.732 6.98213C2.732 5.85496 3.17976 4.77395 3.97679 3.97692C4.77382 3.17989 5.85483 2.73213 6.982 2.73213C8.10917 2.73213 9.19017 3.17989 9.9872 3.97692C10.7842 4.77395 11.232 5.85496 11.232 6.98213C11.232 8.1093 10.7842 9.1903 9.9872 9.98733C9.19017 10.7844 8.10917 11.2321 6.982 11.2321C5.85483 11.2321 4.77382 10.7844 3.97679 9.98733C3.17976 9.1903 2.732 8.1093 2.732 6.98213ZM6.982 1.82141C6.15258 1.82141 5.33538 2.02132 4.59963 2.40421C3.86389 2.7871 3.23126 3.34168 2.75535 4.02098C2.27945 4.70027 1.97428 5.48427 1.8657 6.30655C1.75712 7.12882 1.84834 7.96516 2.13161 8.7447C2.41489 9.52424 2.88188 10.224 3.49303 10.7848C4.10418 11.3455 4.84148 11.7507 5.64247 11.966C6.44345 12.1812 7.28453 12.2003 8.09445 12.0215C8.90437 11.8427 9.65926 11.4714 10.2952 10.9389L14.4013 15.045C14.443 15.0897 14.4932 15.1256 14.5491 15.1505C14.605 15.1754 14.6653 15.1888 14.7264 15.1898C14.7875 15.1909 14.8483 15.1797 14.905 15.1568C14.9617 15.1339 15.0132 15.0998 15.0564 15.0565C15.0997 15.0133 15.1337 14.9618 15.1566 14.9051C15.1795 14.8484 15.1908 14.7877 15.1897 14.7265C15.1886 14.6654 15.1753 14.6051 15.1504 14.5492C15.1255 14.4934 15.0896 14.4431 15.0449 14.4014L10.9387 10.2953C11.5691 9.54246 11.9717 8.6254 12.0991 7.65179C12.2265 6.67817 12.0735 5.68841 11.6581 4.79871C11.2426 3.909 10.582 3.15628 9.75373 2.62891C8.92545 2.10154 7.96391 1.82141 6.982 1.82141Z" fill="black"/>
</svg>
