<svg width="25" height="24" viewBox="0 0 25 24" fill="none" xmlns="http://www.w3.org/2000/svg">
<path d="M6.875 8.79999V7.88571C6.875 4.8468 9.38393 2.39999 12.5 2.39999C14.4411 2.39999 16.1465 3.34943 17.1567 4.79999M6.875 8.79999C5.84375 8.79999 5 9.62285 5 10.6286V19.7714C5 20.7771 5.84375 21.6 6.875 21.6H18.125C19.1563 21.6 20 20.7771 20 19.7714V10.6286C20 9.62285 19.1563 8.79999 18.125 8.79999H6.875ZM12.5 13.3714C13.5313 13.3714 14.375 14.1943 14.375 15.2C14.375 16.2057 13.5313 17.0286 12.5 17.0286C11.4688 17.0286 10.625 16.2057 10.625 15.2C10.625 14.1943 11.4688 13.3714 12.5 13.3714Z" stroke="black" stroke-width="2" stroke-linecap="round"/>
</svg>
