<svg width="25" height="21" viewBox="0 0 25 21" fill="none" xmlns="http://www.w3.org/2000/svg">
<path d="M13.5662 20.5V17.4613L20.9005 10.1642C21.0362 10.045 21.176 9.95793 21.3199 9.90293C21.4638 9.84793 21.6082 9.81951 21.753 9.81767C21.9107 9.81767 22.0656 9.84701 22.2177 9.90567C22.3699 9.96526 22.5079 10.0542 22.6316 10.1724L23.9035 11.4704C24.0162 11.6061 24.1024 11.7473 24.162 11.8939C24.2207 12.0397 24.25 12.1859 24.25 12.3326C24.25 12.4792 24.2262 12.6268 24.1785 12.7753C24.1308 12.9238 24.0392 13.0659 23.9035 13.2016L16.605 20.5H13.5662ZM0.875 18.597V16.3324C0.875 15.765 1.04 15.2343 1.37 14.7402C1.70092 14.2452 2.1455 13.8611 2.70375 13.5879C4.00175 12.9655 5.30067 12.4989 6.6005 12.1882C7.89942 11.8765 9.19925 11.7207 10.5 11.7207C11.1187 11.7207 11.7393 11.7592 12.3617 11.8362C12.9842 11.9132 13.6107 12.0223 14.2414 12.1634L10.2882 16.0891V18.597H0.875ZM21.7613 13.647L23.0331 12.3326L21.7626 11.0346L20.4564 12.3408L21.7613 13.647ZM10.5 8.65443C9.36608 8.65443 8.39487 8.25018 7.58637 7.44168C6.77787 6.63318 6.37408 5.66243 6.375 4.52943C6.37592 3.39643 6.77971 2.42476 7.58637 1.61442C8.39304 0.804092 9.36425 0.401217 10.5 0.4058C11.6357 0.410384 12.607 0.813717 13.4136 1.6158C14.2203 2.41788 14.6241 3.38955 14.625 4.5308C14.6259 5.67205 14.2221 6.6428 13.4136 7.44305C12.6051 8.2433 11.6339 8.64618 10.5 8.65443Z" fill="black"/>
</svg>
