<svg width="25" height="21" viewBox="0 0 25 21" fill="none" xmlns="http://www.w3.org/2000/svg">
<path d="M13.5662 20.5V17.4612L20.9005 10.1641C21.0362 10.0449 21.176 9.95786 21.3199 9.90286C21.4638 9.84786 21.6082 9.81945 21.753 9.81761C21.9107 9.81761 22.0656 9.84695 22.2177 9.90561C22.3699 9.9652 22.5079 10.0541 22.6316 10.1724L23.9035 11.4704C24.0162 11.606 24.1024 11.7472 24.162 11.8939C24.2207 12.0396 24.25 12.1858 24.25 12.3325C24.25 12.4792 24.2262 12.6267 24.1785 12.7752C24.1308 12.9237 24.0392 13.0658 23.9035 13.2015L16.605 20.5H13.5662ZM0.875 18.597V16.3324C0.875 15.7649 1.04 15.2342 1.37 14.7401C1.70092 14.2451 2.1455 13.861 2.70375 13.5879C4.00175 12.9654 5.30067 12.4989 6.6005 12.1881C7.89942 11.8764 9.19925 11.7206 10.5 11.7206C11.1187 11.7206 11.7393 11.7591 12.3617 11.8361C12.9842 11.9131 13.6107 12.0222 14.2414 12.1634L10.2882 16.089V18.597H0.875ZM21.7613 13.647L23.0331 12.3325L21.7626 11.0345L20.4564 12.3407L21.7613 13.647ZM10.5 8.65436C9.36608 8.65436 8.39487 8.25011 7.58637 7.44161C6.77787 6.63311 6.37408 5.66236 6.375 4.52936C6.37592 3.39636 6.77971 2.4247 7.58637 1.61436C8.39304 0.804031 9.36425 0.401156 10.5 0.405739C11.6357 0.410323 12.607 0.813656 13.4136 1.61574C14.2203 2.41782 14.6241 3.38949 14.625 4.53074C14.6259 5.67199 14.2221 6.64274 13.4136 7.44299C12.6051 8.24324 11.6339 8.64611 10.5 8.65436Z" fill="#C5C5C5"/>
</svg>
