<svg width="176" height="163" viewBox="0 0 176 163" fill="none" xmlns="http://www.w3.org/2000/svg">
<path d="M87.5371 0.5C135.669 0.500032 174.574 34.5509 174.574 76.417C174.574 117.956 136.274 151.801 88.6631 152.327L87.5371 152.333H87.5361C78.9059 152.353 70.3104 151.236 61.9736 149.01L61.7891 148.961L61.6191 149.047C55.4839 152.155 41.5675 158.056 18.3066 162.087L16.0264 162.471C14.3209 162.743 12.9466 161.016 13.5186 159.367L13.5801 159.208C17.4698 150.043 20.9866 137.832 22.0537 126.681L22.0762 126.446L21.9092 126.28C8.56653 112.936 0.50007 95.4835 0.5 76.417C0.5 34.5509 39.4049 0.5 87.5371 0.5Z" fill="white" stroke="white"/>
<path d="M67.4934 53L63.6653 46.9038C74.721 39.7434 69.738 27.8451 60.6719 30.053C53.9044 23.0652 46.7017 29.4182 47.3761 35.6684C38.4251 40.4109 44.4052 55.5183 54.527 49.1771L67.4934 53Z" stroke="#4B5EA8" stroke-width="5" stroke-linecap="round" stroke-linejoin="round"/>
<path d="M64.633 49.4066L116.258 54.0154C114.281 46.5309 111.204 39.4425 102.884 38.7877L69.8849 36.1891M78.8018 29L98.2835 30.5729M88.5414 29.7853L87.8785 37.6063M46 58.0839V64.0366C51.0003 64.7143 55.2389 64.9044 54.355 71.7455L52.3638 87.1677C51.3859 94.7323 58.5278 99 64.3063 99H110.696C116.472 99 123.614 94.7323 122.639 87.1677L120.645 71.7455C119.761 64.9044 124.002 64.7166 129 64.0343V58.0839H46Z" stroke="#4B5EA8" stroke-width="5" stroke-linecap="round" stroke-linejoin="round"/>
<path d="M46.85 128.225C45.7667 128.225 44.8083 128.033 43.975 127.65C43.1417 127.25 42.4917 126.7 42.025 126C41.5583 125.3 41.325 124.508 41.325 123.625V120.125C41.325 119.175 41.5583 118.333 42.025 117.6C42.4917 116.867 43.1417 116.3 43.975 115.9C44.8083 115.483 45.7583 115.275 46.825 115.275C47.825 115.275 48.7083 115.417 49.475 115.7C50.2583 115.983 50.8667 116.383 51.3 116.9C51.7333 117.4 51.95 117.983 51.95 118.65C51.95 119.167 51.75 119.583 51.35 119.9C50.95 120.217 50.425 120.375 49.775 120.375C49.5917 120.375 49.4583 120.367 49.375 120.35C49.375 119.633 49.1417 119.058 48.675 118.625C48.225 118.192 47.6333 117.975 46.9 117.975C46.1667 117.975 45.5667 118.183 45.1 118.6C44.65 119.017 44.425 119.567 44.425 120.25V123.4C44.425 124.033 44.6583 124.55 45.125 124.95C45.5917 125.333 46.1917 125.525 46.925 125.525C47.6583 125.525 48.2583 125.308 48.725 124.875C49.1917 124.425 49.425 123.858 49.425 123.175C49.525 123.158 49.6667 123.15 49.85 123.15C50.5 123.15 51.025 123.3 51.425 123.6C51.825 123.9 52.025 124.308 52.025 124.825C52.025 125.492 51.8 126.083 51.35 126.6C50.9167 127.1 50.3083 127.5 49.525 127.8C48.7417 128.083 47.85 128.225 46.85 128.225ZM54.4145 112.675C54.4145 111.908 54.6811 111.317 55.2145 110.9C55.7478 110.483 56.5145 110.275 57.5145 110.275V116.775C57.2978 117.008 57.0978 117.275 56.9145 117.575L57.0645 117.675C58.2145 116.075 59.6811 115.275 61.4645 115.275C62.3145 115.275 63.0645 115.467 63.7145 115.85C64.3645 116.233 64.8645 116.758 65.2145 117.425C65.5811 118.092 65.7645 118.842 65.7645 119.675V126.325C65.7645 126.992 65.5061 127.475 64.9895 127.775C64.4728 128.075 63.6895 128.225 62.6395 128.225V120.125C62.6395 119.492 62.4478 118.975 62.0645 118.575C61.6978 118.175 61.1561 117.975 60.4395 117.975C59.5895 117.975 58.8895 118.242 58.3395 118.775C57.7895 119.292 57.5145 119.942 57.5145 120.725V126.325C57.5145 126.992 57.2561 127.475 56.7395 127.775C56.2228 128.075 55.4478 128.225 54.4145 128.225V112.675ZM72.6025 128.225C71.7525 128.225 70.9692 128.058 70.2525 127.725C69.5525 127.392 68.9859 126.917 68.5525 126.3C68.1359 125.667 67.9275 124.917 67.9275 124.05C67.9275 123.183 68.1525 122.433 68.6025 121.8C69.0525 121.15 69.6609 120.658 70.4275 120.325C71.2109 119.975 72.0692 119.8 73.0025 119.8C73.7692 119.8 74.4525 119.925 75.0525 120.175C75.6692 120.408 76.2359 120.767 76.7525 121.25L76.8775 121.125C76.7275 120.975 76.4692 120.75 76.1025 120.45V119.95C76.1025 119.267 75.8609 118.725 75.3775 118.325C74.8942 117.925 74.2192 117.725 73.3525 117.725C71.8025 117.725 70.6609 118.292 69.9275 119.425C69.5609 119.308 69.2525 119.125 69.0025 118.875C68.7525 118.608 68.6275 118.325 68.6275 118.025C68.6275 117.525 68.8525 117.067 69.3025 116.65C69.7525 116.233 70.3609 115.9 71.1275 115.65C71.8942 115.4 72.7275 115.275 73.6275 115.275C75.3942 115.275 76.7609 115.692 77.7275 116.525C78.6942 117.342 79.1775 118.458 79.1775 119.875V126.125C79.1775 126.858 78.9442 127.392 78.4775 127.725C78.0109 128.058 77.2775 128.225 76.2775 128.225V127.2C76.5609 126.917 76.7525 126.708 76.8525 126.575L76.7525 126.45C76.2025 127.033 75.6109 127.475 74.9775 127.775C74.3609 128.075 73.5692 128.225 72.6025 128.225ZM73.4025 125.95C74.2692 125.95 74.9442 125.783 75.4275 125.45C75.9109 125.117 76.1525 124.642 76.1525 124.025C76.1525 123.425 75.9025 122.95 75.4025 122.6C74.9192 122.25 74.2609 122.075 73.4275 122.075C72.6609 122.075 72.0525 122.25 71.6025 122.6C71.1692 122.933 70.9525 123.408 70.9525 124.025C70.9525 124.658 71.1692 125.142 71.6025 125.475C72.0359 125.792 72.6359 125.95 73.4025 125.95ZM86.8049 128.225C85.4549 128.225 84.4549 127.833 83.8049 127.05C83.1549 126.267 82.8299 125.258 82.8299 124.025V117.825H80.2549C80.2549 117.042 80.4049 116.458 80.7049 116.075C81.0049 115.692 81.4049 115.5 81.9049 115.5H82.8799V113.425C82.8799 112.742 83.1299 112.258 83.6299 111.975C84.1299 111.675 84.8882 111.525 85.9049 111.525V115.5H89.2299C89.2299 116.333 89.0716 116.933 88.7549 117.3C88.4382 117.65 87.9299 117.825 87.2299 117.825H85.9549V123.9C85.9549 124.483 86.0632 124.9 86.2799 125.15C86.5132 125.4 86.9049 125.525 87.4549 125.525C88.0382 125.525 88.6215 125.367 89.2049 125.05C89.3715 125.2 89.5049 125.392 89.6049 125.625C89.7049 125.842 89.7549 126.067 89.7549 126.3C89.7549 126.8 89.4965 127.25 88.9799 127.65C88.4632 128.033 87.7382 128.225 86.8049 128.225ZM96.8256 128.225C95.7423 128.225 94.7839 128.033 93.9506 127.65C93.1173 127.25 92.4673 126.7 92.0006 126C91.5339 125.3 91.3006 124.508 91.3006 123.625V120.125C91.3006 119.175 91.5339 118.333 92.0006 117.6C92.4673 116.867 93.1173 116.3 93.9506 115.9C94.7839 115.483 95.7339 115.275 96.8006 115.275C97.8006 115.275 98.6839 115.417 99.4506 115.7C100.234 115.983 100.842 116.383 101.276 116.9C101.709 117.4 101.926 117.983 101.926 118.65C101.926 119.167 101.726 119.583 101.326 119.9C100.926 120.217 100.401 120.375 99.7506 120.375C99.5673 120.375 99.4339 120.367 99.3506 120.35C99.3506 119.633 99.1173 119.058 98.6506 118.625C98.2006 118.192 97.6089 117.975 96.8756 117.975C96.1423 117.975 95.5423 118.183 95.0756 118.6C94.6256 119.017 94.4006 119.567 94.4006 120.25V123.4C94.4006 124.033 94.6339 124.55 95.1006 124.95C95.5673 125.333 96.1673 125.525 96.9006 125.525C97.6339 125.525 98.2339 125.308 98.7006 124.875C99.1673 124.425 99.4006 123.858 99.4006 123.175C99.5006 123.158 99.6423 123.15 99.8256 123.15C100.476 123.15 101.001 123.3 101.401 123.6C101.801 123.9 102.001 124.308 102.001 124.825C102.001 125.492 101.776 126.083 101.326 126.6C100.892 127.1 100.284 127.5 99.5006 127.8C98.7173 128.083 97.8256 128.225 96.8256 128.225ZM106.465 114.1C105.865 114.1 105.365 113.925 104.965 113.575C104.582 113.208 104.39 112.742 104.39 112.175C104.39 111.625 104.582 111.175 104.965 110.825C105.365 110.458 105.865 110.275 106.465 110.275C107.065 110.275 107.557 110.458 107.94 110.825C108.34 111.175 108.54 111.625 108.54 112.175C108.54 112.742 108.34 113.208 107.94 113.575C107.557 113.925 107.065 114.1 106.465 114.1ZM104.89 117.175C104.89 116.492 105.148 116.008 105.665 115.725C106.182 115.425 106.965 115.275 108.015 115.275V126.325C108.015 126.992 107.757 127.475 107.24 127.775C106.723 128.075 105.94 128.225 104.89 128.225V117.175ZM111.495 117.425C111.495 116.808 111.736 116.3 112.22 115.9C112.703 115.483 113.42 115.275 114.37 115.275V116.625C114.086 117.008 113.928 117.233 113.895 117.3L113.995 117.4C114.528 116.7 115.111 116.175 115.745 115.825C116.395 115.458 117.195 115.275 118.145 115.275C119.061 115.275 119.87 115.467 120.57 115.85C121.286 116.217 121.845 116.742 122.245 117.425C122.645 118.108 122.845 118.892 122.845 119.775V123.725C122.845 124.625 122.62 125.417 122.17 126.1C121.736 126.783 121.136 127.308 120.37 127.675C119.603 128.042 118.736 128.225 117.77 128.225C117.153 128.225 116.511 128.1 115.845 127.85C115.195 127.583 114.645 127.225 114.195 126.775L114.095 126.9C114.211 127.067 114.395 127.242 114.645 127.425V131.125C114.645 132.525 113.595 133.225 111.495 133.225V117.425ZM117.17 125.525C117.986 125.525 118.62 125.35 119.07 125C119.52 124.65 119.745 124.158 119.745 123.525V119.975C119.745 119.325 119.52 118.833 119.07 118.5C118.636 118.15 118.003 117.975 117.17 117.975C116.42 117.975 115.803 118.158 115.32 118.525C114.836 118.875 114.595 119.317 114.595 119.85V123.65C114.595 124.167 114.828 124.608 115.295 124.975C115.778 125.342 116.403 125.525 117.17 125.525ZM130.787 128.225C129.754 128.225 128.812 128.025 127.962 127.625C127.112 127.208 126.437 126.65 125.937 125.95C125.437 125.233 125.187 124.433 125.187 123.55V120.225C125.187 119.292 125.446 118.45 125.962 117.7C126.479 116.95 127.162 116.358 128.012 115.925C128.879 115.492 129.812 115.275 130.812 115.275C131.796 115.275 132.696 115.483 133.512 115.9C134.346 116.3 135.004 116.867 135.487 117.6C135.971 118.317 136.212 119.142 136.212 120.075V121.475C136.212 121.842 136.071 122.15 135.787 122.4C135.521 122.65 135.179 122.775 134.762 122.775H128.212V123.325C128.212 124.042 128.429 124.625 128.862 125.075C129.296 125.525 129.946 125.75 130.812 125.75C131.646 125.75 132.262 125.567 132.662 125.2C133.079 124.833 133.287 124.358 133.287 123.775C133.587 123.742 133.796 123.725 133.912 123.725C134.529 123.725 135.012 123.867 135.362 124.15C135.712 124.417 135.887 124.8 135.887 125.3C135.887 125.783 135.662 126.25 135.212 126.7C134.762 127.15 134.146 127.517 133.362 127.8C132.579 128.083 131.721 128.225 130.787 128.225ZM133.387 120.55V120.075C133.387 119.375 133.146 118.808 132.662 118.375C132.179 117.942 131.554 117.725 130.787 117.725C130.021 117.725 129.396 117.942 128.912 118.375C128.446 118.792 128.212 119.358 128.212 120.075V120.55H133.387Z" fill="#4B5EA8"/>
</svg>
